<svg width="19" height="19" viewBox="0 0 19 19" fill="none" xmlns="http://www.w3.org/2000/svg">
    <path d="M18.9999 15.1406C18.9999 15.6918 18.781 16.2203 18.3913 16.6101C18.0016 16.9998 17.473 17.2187 16.9218 17.2187C16.3707 17.2187 15.8421 16.9998 15.4524 16.6101C15.0626 16.2203 14.8437 15.6918 14.8437 15.1406C14.8437 13.3913 16.481 12.0613 16.5507 12.0049C16.656 11.9205 16.7869 11.8746 16.9218 11.8746C17.0567 11.8746 17.1876 11.9205 17.2929 12.0049C17.3627 12.0613 18.9999 13.3913 18.9999 15.1406ZM9.83319 9.23947C9.95744 9.11479 10.042 8.95609 10.0761 8.78341C10.1102 8.61073 10.0924 8.43181 10.0249 8.26925C9.95736 8.10669 9.84321 7.96778 9.69681 7.87005C9.55042 7.77232 9.37835 7.72017 9.20233 7.72017C9.02631 7.72017 8.85424 7.77232 8.70785 7.87005C8.56145 7.96778 8.44729 8.10669 8.37979 8.26925C8.31229 8.43181 8.29448 8.61073 8.32859 8.78341C8.36271 8.95609 8.44722 9.11479 8.57147 9.23947C8.65421 9.3225 8.75253 9.38838 8.86079 9.43333C8.96904 9.47828 9.08511 9.50142 9.20233 9.50142C9.31955 9.50142 9.43561 9.47828 9.54387 9.43333C9.65213 9.38838 9.75045 9.3225 9.83319 9.23947ZM17.045 8.74517L9.06725 0.767396C8.95591 0.65613 8.80495 0.593628 8.64754 0.593628C8.49014 0.593628 8.33918 0.65613 8.22784 0.767396L5.21381 3.78513L8.21448 6.78505C8.65348 6.54747 9.16332 6.47584 9.65079 6.58326C10.1383 6.69068 10.5708 6.96997 10.8693 7.37007C11.1677 7.77017 11.3122 8.26433 11.2763 8.7622C11.2404 9.26007 11.0265 9.72838 10.6737 10.0815C10.3209 10.4346 9.85276 10.649 9.35492 10.6853C8.85708 10.7217 8.36279 10.5776 7.96243 10.2795C7.56207 9.98135 7.28239 9.54908 7.17454 9.0617C7.06669 8.57433 7.13787 8.06442 7.37506 7.62521L4.3744 4.62083L1.11323 7.87978C0.779203 8.21382 0.591553 8.66687 0.591553 9.13927C0.591553 9.61167 0.779203 10.0647 1.11323 10.3988L7.41366 16.6992C7.7477 17.0332 8.20075 17.2209 8.67315 17.2209C9.14555 17.2209 9.5986 17.0332 9.93264 16.6992L17.045 9.58681C17.1005 9.53164 17.1444 9.46606 17.1744 9.39385C17.2045 9.32163 17.2199 9.24419 17.2199 9.16599C17.2199 9.08778 17.2045 9.01035 17.1744 8.93813C17.1444 8.86592 17.1005 8.80034 17.045 8.74517ZM3.38877 1.9549C3.27736 1.84348 3.12626 1.78089 2.9687 1.78089C2.81114 1.78089 2.66003 1.84348 2.54862 1.9549C2.43721 2.06631 2.37462 2.21741 2.37462 2.37497C2.37462 2.53253 2.43721 2.68364 2.54862 2.79505L4.3744 4.62083L5.21381 3.78513L3.38877 1.9549Z" fill="black"/>
</svg>
