<svg width="19" height="19" viewBox="0 0 19 19" fill="none" xmlns="http://www.w3.org/2000/svg">
    <path d="M2.69163 16.3083C2.05829 15.675 1.58329 14.9559 1.26663 14.151C0.949959 13.3462 0.791626 12.5247 0.791626 11.6866C0.791626 10.849 0.949959 10.0278 1.26663 9.22291C1.58329 8.41804 2.05829 7.69895 2.69163 7.06561L6.33329 3.42395C6.51802 3.23922 6.75208 3.14027 7.0355 3.12707C7.31945 3.11388 7.56038 3.20624 7.75829 3.40415C7.94302 3.58888 8.03538 3.82295 8.03538 4.10636C8.03538 4.39031 7.94302 4.62464 7.75829 4.80936L4.53225 8.03541C5.06003 8.45763 5.38329 9.02156 5.50204 9.7272C5.62079 10.4334 5.38989 11.0833 4.80933 11.6771L5.3635 12.2312C5.90447 11.7299 6.21138 11.0635 6.28421 10.2323C6.35652 9.40103 6.13538 8.67534 5.62079 8.0552L11.6573 2.01874C11.8552 1.82082 12.0895 1.72186 12.3603 1.72186C12.6305 1.72186 12.8645 1.82082 13.0625 2.01874C13.2472 2.20346 13.3461 2.43093 13.3593 2.70115C13.3725 2.9719 13.2736 3.21283 13.0625 3.42395L8.72809 7.75832L9.26246 8.31249L14.725 2.84999C14.9097 2.66527 15.144 2.5729 15.428 2.5729C15.7114 2.5729 15.9454 2.66527 16.1302 2.84999C16.3149 3.03471 16.4073 3.26878 16.4073 3.5522C16.4073 3.83614 16.3149 4.07047 16.1302 4.2552L10.6677 9.7177L11.2416 10.2719L15.8531 5.6604C16.051 5.46249 16.2853 5.36353 16.5561 5.36353C16.8263 5.36353 17.0604 5.46249 17.2583 5.6604C17.443 5.84513 17.5354 6.0792 17.5354 6.36261C17.5354 6.64656 17.443 6.88089 17.2583 7.06561L12.0729 12.2312L12.627 12.8052L16.1302 9.30207C16.3413 9.09096 16.5822 8.992 16.853 9.0052C17.1232 9.01839 17.3507 9.11735 17.5354 9.30207C17.7201 9.48679 17.8191 9.71453 17.8323 9.98528C17.8454 10.2555 17.7465 10.4962 17.5354 10.7073L11.9343 16.3083C11.301 16.9417 10.5819 17.4167 9.77704 17.7333C8.97218 18.05 8.15096 18.2083 7.31338 18.2083C6.47527 18.2083 5.65378 18.05 4.84892 17.7333C4.04406 17.4167 3.32496 16.9417 2.69163 16.3083Z" fill="black"/>
</svg>
