<svg width="23" height="23" viewBox="0 0 23 23" fill="none" xmlns="http://www.w3.org/2000/svg">
    <path fill-rule="evenodd" clip-rule="evenodd" d="M15.2288 2.77082C15.5752 2.42452 16.045 2.22998 16.5348 2.22998C17.0246 2.22998 17.4944 2.42452 17.8408 2.77082L20.2292 5.15928C20.5755 5.50569 20.7701 5.97545 20.7701 6.46527C20.7701 6.95508 20.5755 7.42485 20.2292 7.77125L18.7644 9.2361L13.764 4.23567L15.2288 2.77082ZM12.458 5.54166L4.14548 13.8542C3.79904 14.2005 3.60435 14.6703 3.60425 15.1601V17.5486C3.60425 18.0385 3.79887 18.5084 4.14529 18.8548C4.49171 19.2012 4.96156 19.3958 5.45147 19.3958H7.83993C8.3298 19.3957 8.79957 19.201 9.14591 18.8546L17.4584 10.5421L12.458 5.54166Z" fill="black"/>
</svg>
